<svg width="131" height="74" viewBox="0 0 131 74" fill="none" xmlns="http://www.w3.org/2000/svg">
<path d="M32.4346 9.7998L32.4883 9.91504L56.2637 60.4053V12.9004H51.165V9.7998H64.6309V12.9004H59.5322V64.2002H41.9961L41.9424 64.085L18.167 13.5938V61.0996H23.2656V64.2002H9.7998V61.0996H14.8984V12.9004H9.7998V9.7998H32.4346ZM91.3711 9.7998V12.9004H86.9102V61.0996H91.3711V64.2002H66.752V61.0996H71.8506V12.9004H66.752V9.7998H91.3711ZM116.738 9.7998V12.9004H110.136L92.9141 35.4502H104.875L104.929 35.5664L116.666 61.0996H121.2V64.2002H100.668L100.614 64.084L88.7588 38.3662L88.7402 38.3262V35.582L88.7822 35.5283L106.126 12.9004H100.659V9.7998H116.738Z" fill="#F8F8F8" stroke="black" stroke-width="0.4"/>
</svg>
